<svg width="39" height="13" viewBox="0 0 39 13" fill="none" xmlns="http://www.w3.org/2000/svg">
<path d="M15.1342 0.606166L10.1564 12.4106H6.95638L4.53861 3.02394C4.39638 2.45505 4.25416 2.24172 3.8275 1.95727C3.11638 1.53061 1.90749 1.17505 0.84082 0.961721L0.911936 0.606166H6.10305C6.74305 0.606166 7.38305 1.03283 7.52527 1.81505L8.80527 8.64172L12.0053 0.606166H15.1342ZM27.7919 8.49949C27.7919 5.3706 23.4542 5.22839 23.5253 3.80617C23.5253 3.3795 23.9519 2.95283 24.8053 2.81061C25.2319 2.7395 26.4408 2.7395 27.7919 3.30838L28.3608 0.819496C27.6497 0.535051 26.6542 0.32172 25.5164 0.32172C22.4586 0.32172 20.3964 1.95728 20.3253 4.23283C20.3253 5.9395 21.8186 6.86394 23.0275 7.43283C24.2364 8.00171 24.5919 8.35728 24.5919 8.92616C24.5919 9.70839 23.6675 10.0639 22.743 10.0639C21.1786 10.0639 20.3253 9.63728 19.6142 9.35283L19.0453 11.9128C19.7564 12.2684 21.1075 12.5528 22.4586 12.5528C25.6586 12.5528 27.7208 10.9884 27.7919 8.49949ZM35.7564 12.4106H38.6008L36.1119 0.606166H33.4808C32.9119 0.606166 32.4142 0.961719 32.2008 1.4595L27.6497 12.4106H30.8497L31.4897 10.6328H35.4008L35.7564 12.4106ZM32.343 8.21505L33.9786 3.80617L34.903 8.21505H32.343ZM19.4719 0.606166L16.983 12.4106H13.9253L16.4142 0.606166H19.4719Z" fill="white"/>
</svg>
